<?xml version="1.0" encoding="utf-8"?>
<!--License: CC Attribution. Made by Artyom Khamitov: https://dribbble.com/gmax-->
<svg version="1.1" id="Слой_1" xmlns="http://www.w3.org/2000/svg" xmlns:xlink="http://www.w3.org/1999/xlink" viewBox="0 0 64 64" enable-background="new 0 0 64 64" xml:space="preserve">
  <rect id="bg" x="-144" y="-243" display="none" fill="#6DCFF6" width="544" height="455"/>
  <g id="Oven">
    <path d="M50,0H14C9.3,0,5,4.3,5,9v46c0,4.7,4.3,9,9,9h36c4.7,0,9-4.3,9-9V9C59,4.3,54.7,0,50,0z M57,55c0,3.7-3.3,7-7,7H14
		c-3.7,0-7-3.3-7-7V9c0-3.7,3.3-7,7-7h36c3.7,0,7,3.3,7,7V55z"/>
    <path d="M46.9,13.9c2.2,0,3.9-1.8,3.9-3.9s-1.8-3.9-3.9-3.9C44.8,6.1,43,7.8,43,10S44.8,13.9,46.9,13.9z M46.9,8.1
		c1.1,0,1.9,0.9,1.9,1.9s-0.9,1.9-1.9,1.9S45,11.1,45,10S45.9,8.1,46.9,8.1z"/>
    <path d="M37.1,13.9c2.2,0,3.9-1.8,3.9-3.9s-1.8-3.9-3.9-3.9c-2.2,0-3.9,1.8-3.9,3.9S34.9,13.9,37.1,13.9z M37.1,8.1
		c1.1,0,1.9,0.9,1.9,1.9s-0.9,1.9-1.9,1.9s-1.9-0.9-1.9-1.9S36,8.1,37.1,8.1z"/>
    <path d="M17.1,13.9c2.2,0,3.9-1.8,3.9-3.9s-1.8-3.9-3.9-3.9c-2.2,0-3.9,1.8-3.9,3.9S14.9,13.9,17.1,13.9z M17.1,8.1
		c1.1,0,1.9,0.9,1.9,1.9s-0.9,1.9-1.9,1.9s-1.9-0.9-1.9-1.9S16,8.1,17.1,8.1z"/>
    <path d="M27.1,13.9c2.2,0,3.9-1.8,3.9-3.9s-1.8-3.9-3.9-3.9c-2.2,0-3.9,1.8-3.9,3.9S24.9,13.9,27.1,13.9z M27.1,8.1
		c1.1,0,1.9,0.9,1.9,1.9s-0.9,1.9-1.9,1.9s-1.9-0.9-1.9-1.9S26,8.1,27.1,8.1z"/>
    <path d="M48,24H16c-1.7,0-3,1.3-3,3v26c0,1.7,1.3,3,3,3h32c1.7,0,3-1.3,3-3V27C51,25.3,49.7,24,48,24z M49,53c0,0.6-0.4,1-1,1H16
		c-0.6,0-1-0.4-1-1V27c0-0.6,0.4-1,1-1h32c0.6,0,1,0.4,1,1V53z"/>
    <path d="M36,37c0-3.1,1.4-4.1,1.5-4.1c0.5-0.3,0.6-0.9,0.3-1.4c-0.3-0.5-0.9-0.6-1.4-0.4C36.4,31.2,34,32.7,34,37
		c0,1.4,0.9,2.7,1.8,3.8c0.6,0.8,1.2,1.7,1.2,2.2c0,1.1-0.9,2.5-2.7,4.3c-0.4,0.4-0.4,1,0,1.4c0.2,0.2,0.5,0.3,0.7,0.3
		s0.5-0.1,0.7-0.3C38,46.5,39,44.6,39,43c0-1.2-0.8-2.4-1.6-3.4C36.7,38.7,36,37.7,36,37z"/>
    <path d="M50,18H14c-0.6,0-1,0.4-1,1s0.4,1,1,1h36c0.6,0,1-0.4,1-1S50.6,18,50,18z"/>
    <path d="M27,37c0-3.1,1.8-4,1.9-4.1c0.5-0.2,0.7-0.8,0.5-1.3c-0.2-0.5-0.8-0.7-1.3-0.5C27.9,31.2,25,32.6,25,37
		c0,1.4,0.9,2.7,1.8,3.8c0.6,0.8,1.2,1.7,1.2,2.2c0,1.4-0.9,2.9-2.6,4.2c-0.4,0.3-0.5,1-0.2,1.4c0.2,0.2,0.5,0.4,0.8,0.4
		c0.2,0,0.4-0.1,0.6-0.2C28.8,47,30,45,30,43c0-1.2-0.8-2.4-1.6-3.4C27.7,38.7,27,37.7,27,37z"/>
  </g>
</svg>

